<?xml version="1.0" encoding="utf-8" standalone="no"?>
<!DOCTYPE svg PUBLIC "-//W3C//DTD SVG 1.1//EN"
  "http://www.w3.org/Graphics/SVG/1.1/DTD/svg11.dtd">
<svg xmlns:xlink="http://www.w3.org/1999/xlink" width="864pt" height="820.8pt" viewBox="0 0 864 820.8" xmlns="http://www.w3.org/2000/svg" version="1.1">
 <metadata>
  <rdf:RDF xmlns:dc="http://purl.org/dc/elements/1.1/" xmlns:cc="http://creativecommons.org/ns#" xmlns:rdf="http://www.w3.org/1999/02/22-rdf-syntax-ns#">
   <cc:Work>
    <dc:type rdf:resource="http://purl.org/dc/dcmitype/StillImage"/>
    <dc:date>2025-04-23T03:28:18.342661</dc:date>
    <dc:format>image/svg+xml</dc:format>
    <dc:creator>
     <cc:Agent>
      <dc:title>Matplotlib v3.10.1, https://matplotlib.org/</dc:title>
     </cc:Agent>
    </dc:creator>
   </cc:Work>
  </rdf:RDF>
 </metadata>
 <defs>
  <style type="text/css">*{stroke-linejoin: round; stroke-linecap: butt}</style>
 </defs>
 <g id="figure_1">
  <g id="patch_1">
   <path d="M 0 820.8 
L 864 820.8 
L 864 0 
L 0 0 
z
" style="fill: #ffffff"/>
  </g>
  <g id="axes_1">
   <g id="patch_2">
    <path d="M 140.29 778.84 
L 853.2 778.84 
L 853.2 26.88 
L 140.29 26.88 
z
" style="fill: #ffffff"/>
   </g>
   <g id="patch_3">
    <path d="M 140.29 744.66 
L 140.29 744.66 
L 140.29 730.192275 
L 140.29 730.192275 
z
" clip-path="url(#p23d242557e)" style="fill: #808080"/>
   </g>
   <g id="patch_4">
    <path d="M 140.29 726.575344 
L 140.29 726.575344 
L 140.29 712.107619 
L 140.29 712.107619 
z
" clip-path="url(#p23d242557e)" style="fill: #808080"/>
   </g>
   <g id="patch_5">
    <path d="M 140.29 708.490688 
L 144.410867 708.490688 
L 144.410867 694.022963 
L 140.29 694.022963 
z
" clip-path="url(#p23d242557e)" style="fill: #808080"/>
   </g>
   <g id="patch_6">
    <path d="M 140.29 690.406032 
L 144.410867 690.406032 
L 144.410867 675.938307 
L 140.29 675.938307 
z
" clip-path="url(#p23d242557e)" style="fill: #808080"/>
   </g>
   <g id="patch_7">
    <path d="M 140.29 672.321376 
L 144.410867 672.321376 
L 144.410867 657.853651 
L 140.29 657.853651 
z
" clip-path="url(#p23d242557e)" style="fill: #808080"/>
   </g>
   <g id="patch_8">
    <path d="M 140.29 654.23672 
L 144.410867 654.23672 
L 144.410867 639.768995 
L 140.29 639.768995 
z
" clip-path="url(#p23d242557e)" style="fill: #808080"/>
   </g>
   <g id="patch_9">
    <path d="M 140.29 636.152063 
L 144.410867 636.152063 
L 144.410867 621.684339 
L 140.29 621.684339 
z
" clip-path="url(#p23d242557e)" style="fill: #808080"/>
   </g>
   <g id="patch_10">
    <path d="M 140.29 618.067407 
L 144.410867 618.067407 
L 144.410867 603.599683 
L 140.29 603.599683 
z
" clip-path="url(#p23d242557e)" style="fill: #808080"/>
   </g>
   <g id="patch_11">
    <path d="M 140.29 599.982751 
L 144.410867 599.982751 
L 144.410867 585.515026 
L 140.29 585.515026 
z
" clip-path="url(#p23d242557e)" style="fill: #808080"/>
   </g>
   <g id="patch_12">
    <path d="M 140.29 581.898095 
L 144.410867 581.898095 
L 144.410867 567.43037 
L 140.29 567.43037 
z
" clip-path="url(#p23d242557e)" style="fill: #808080"/>
   </g>
   <g id="patch_13">
    <path d="M 140.29 563.813439 
L 144.410867 563.813439 
L 144.410867 549.345714 
L 140.29 549.345714 
z
" clip-path="url(#p23d242557e)" style="fill: #808080"/>
   </g>
   <g id="patch_14">
    <path d="M 140.29 545.728783 
L 144.410867 545.728783 
L 144.410867 531.261058 
L 140.29 531.261058 
z
" clip-path="url(#p23d242557e)" style="fill: #808080"/>
   </g>
   <g id="patch_15">
    <path d="M 140.29 527.644127 
L 173.256936 527.644127 
L 173.256936 513.176402 
L 140.29 513.176402 
z
" clip-path="url(#p23d242557e)" style="fill: #808080"/>
   </g>
   <g id="patch_16">
    <path d="M 140.29 509.559471 
L 197.982139 509.559471 
L 197.982139 495.091746 
L 140.29 495.091746 
z
" clip-path="url(#p23d242557e)" style="fill: #808080"/>
   </g>
   <g id="patch_17">
    <path d="M 140.29 491.474815 
L 206.223873 491.474815 
L 206.223873 477.00709 
L 140.29 477.00709 
z
" clip-path="url(#p23d242557e)" style="fill: #808080"/>
   </g>
   <g id="patch_18">
    <path d="M 140.29 473.390159 
L 206.223873 473.390159 
L 206.223873 458.922434 
L 140.29 458.922434 
z
" clip-path="url(#p23d242557e)" style="fill: #808080"/>
   </g>
   <g id="patch_19">
    <path d="M 140.29 455.305503 
L 222.707341 455.305503 
L 222.707341 440.837778 
L 140.29 440.837778 
z
" clip-path="url(#p23d242557e)" style="fill: #808080"/>
   </g>
   <g id="patch_20">
    <path d="M 140.29 437.220847 
L 226.828208 437.220847 
L 226.828208 422.753122 
L 140.29 422.753122 
z
" clip-path="url(#p23d242557e)" style="fill: #808080"/>
   </g>
   <g id="patch_21">
    <path d="M 140.29 419.13619 
L 226.828208 419.13619 
L 226.828208 404.668466 
L 140.29 404.668466 
z
" clip-path="url(#p23d242557e)" style="fill: #808080"/>
   </g>
   <g id="patch_22">
    <path d="M 140.29 401.051534 
L 235.069942 401.051534 
L 235.069942 386.58381 
L 140.29 386.58381 
z
" clip-path="url(#p23d242557e)" style="fill: #808080"/>
   </g>
   <g id="patch_23">
    <path d="M 140.29 382.966878 
L 235.069942 382.966878 
L 235.069942 368.499153 
L 140.29 368.499153 
z
" clip-path="url(#p23d242557e)" style="fill: #808080"/>
   </g>
   <g id="patch_24">
    <path d="M 140.29 364.882222 
L 235.069942 364.882222 
L 235.069942 350.414497 
L 140.29 350.414497 
z
" clip-path="url(#p23d242557e)" style="fill: #808080"/>
   </g>
   <g id="patch_25">
    <path d="M 140.29 346.797566 
L 235.069942 346.797566 
L 235.069942 332.329841 
L 140.29 332.329841 
z
" clip-path="url(#p23d242557e)" style="fill: #808080"/>
   </g>
   <g id="patch_26">
    <path d="M 140.29 328.71291 
L 243.311676 328.71291 
L 243.311676 314.245185 
L 140.29 314.245185 
z
" clip-path="url(#p23d242557e)" style="fill: #808080"/>
   </g>
   <g id="patch_27">
    <path d="M 140.29 310.628254 
L 243.311676 310.628254 
L 243.311676 296.160529 
L 140.29 296.160529 
z
" clip-path="url(#p23d242557e)" style="fill: #808080"/>
   </g>
   <g id="patch_28">
    <path d="M 140.29 292.543598 
L 247.432543 292.543598 
L 247.432543 278.075873 
L 140.29 278.075873 
z
" clip-path="url(#p23d242557e)" style="fill: #808080"/>
   </g>
   <g id="patch_29">
    <path d="M 140.29 274.458942 
L 247.432543 274.458942 
L 247.432543 259.991217 
L 140.29 259.991217 
z
" clip-path="url(#p23d242557e)" style="fill: #808080"/>
   </g>
   <g id="patch_30">
    <path d="M 140.29 256.374286 
L 247.432543 256.374286 
L 247.432543 241.906561 
L 140.29 241.906561 
z
" clip-path="url(#p23d242557e)" style="fill: #808080"/>
   </g>
   <g id="patch_31">
    <path d="M 140.29 238.28963 
L 272.157746 238.28963 
L 272.157746 223.821905 
L 140.29 223.821905 
z
" clip-path="url(#p23d242557e)" style="fill: #808080"/>
   </g>
   <g id="patch_32">
    <path d="M 140.29 220.204974 
L 292.762081 220.204974 
L 292.762081 205.737249 
L 140.29 205.737249 
z
" clip-path="url(#p23d242557e)" style="fill: #808080"/>
   </g>
   <g id="patch_33">
    <path d="M 140.29 202.120317 
L 301.003815 202.120317 
L 301.003815 187.652593 
L 140.29 187.652593 
z
" clip-path="url(#p23d242557e)" style="fill: #808080"/>
   </g>
   <g id="patch_34">
    <path d="M 140.29 184.035661 
L 305.124682 184.035661 
L 305.124682 169.567937 
L 140.29 169.567937 
z
" clip-path="url(#p23d242557e)" style="fill: #808080"/>
   </g>
   <g id="patch_35">
    <path d="M 140.29 165.951005 
L 313.366416 165.951005 
L 313.366416 151.48328 
L 140.29 151.48328 
z
" clip-path="url(#p23d242557e)" style="fill: #808080"/>
   </g>
   <g id="patch_36">
    <path d="M 140.29 147.866349 
L 317.487283 147.866349 
L 317.487283 133.398624 
L 140.29 133.398624 
z
" clip-path="url(#p23d242557e)" style="fill: #808080"/>
   </g>
   <g id="patch_37">
    <path d="M 140.29 129.781693 
L 325.729017 129.781693 
L 325.729017 115.313968 
L 140.29 115.313968 
z
" clip-path="url(#p23d242557e)" style="fill: #808080"/>
   </g>
   <g id="patch_38">
    <path d="M 140.29 111.697037 
L 329.849884 111.697037 
L 329.849884 97.229312 
L 140.29 97.229312 
z
" clip-path="url(#p23d242557e)" style="fill: #808080"/>
   </g>
   <g id="patch_39">
    <path d="M 140.29 93.612381 
L 329.849884 93.612381 
L 329.849884 79.144656 
L 140.29 79.144656 
z
" clip-path="url(#p23d242557e)" style="fill: #808080"/>
   </g>
   <g id="patch_40">
    <path d="M 140.29 75.527725 
L 333.970751 75.527725 
L 333.970751 61.06 
L 140.29 61.06 
z
" clip-path="url(#p23d242557e)" style="fill: #808080"/>
   </g>
   <g id="matplotlib.axis_1">
    <g id="xtick_1">
     <g id="line2d_1">
      <defs>
       <path id="m212c298930" d="M 0 0 
L 0 3.5 
" style="stroke: #000000; stroke-width: 0.8"/>
      </defs>
      <g>
       <use xlink:href="#m212c298930" x="140.29" y="778.84" style="stroke: #000000; stroke-width: 0.8"/>
      </g>
     </g>
     <g id="text_1">
      <!-- 0 -->
      <g transform="translate(137.10875 793.438437) scale(0.1 -0.1)">
       <defs>
        <path id="DejaVuSans-30" d="M 2034 4250 
Q 1547 4250 1301 3770 
Q 1056 3291 1056 2328 
Q 1056 1369 1301 889 
Q 1547 409 2034 409 
Q 2525 409 2770 889 
Q 3016 1369 3016 2328 
Q 3016 3291 2770 3770 
Q 2525 4250 2034 4250 
z
M 2034 4750 
Q 2819 4750 3233 4129 
Q 3647 3509 3647 2328 
Q 3647 1150 3233 529 
Q 2819 -91 2034 -91 
Q 1250 -91 836 529 
Q 422 1150 422 2328 
Q 422 3509 836 4129 
Q 1250 4750 2034 4750 
z
" transform="scale(0.015625)"/>
       </defs>
       <use xlink:href="#DejaVuSans-30"/>
      </g>
     </g>
    </g>
    <g id="xtick_2">
     <g id="line2d_2">
      <g>
       <use xlink:href="#m212c298930" x="222.707341" y="778.84" style="stroke: #000000; stroke-width: 0.8"/>
      </g>
     </g>
     <g id="text_2">
      <!-- 20 -->
      <g transform="translate(216.344841 793.438437) scale(0.1 -0.1)">
       <defs>
        <path id="DejaVuSans-32" d="M 1228 531 
L 3431 531 
L 3431 0 
L 469 0 
L 469 531 
Q 828 903 1448 1529 
Q 2069 2156 2228 2338 
Q 2531 2678 2651 2914 
Q 2772 3150 2772 3378 
Q 2772 3750 2511 3984 
Q 2250 4219 1831 4219 
Q 1534 4219 1204 4116 
Q 875 4013 500 3803 
L 500 4441 
Q 881 4594 1212 4672 
Q 1544 4750 1819 4750 
Q 2544 4750 2975 4387 
Q 3406 4025 3406 3419 
Q 3406 3131 3298 2873 
Q 3191 2616 2906 2266 
Q 2828 2175 2409 1742 
Q 1991 1309 1228 531 
z
" transform="scale(0.015625)"/>
       </defs>
       <use xlink:href="#DejaVuSans-32"/>
       <use xlink:href="#DejaVuSans-30" transform="translate(63.623047 0)"/>
      </g>
     </g>
    </g>
    <g id="xtick_3">
     <g id="line2d_3">
      <g>
       <use xlink:href="#m212c298930" x="305.124682" y="778.84" style="stroke: #000000; stroke-width: 0.8"/>
      </g>
     </g>
     <g id="text_3">
      <!-- 40 -->
      <g transform="translate(298.762182 793.438437) scale(0.1 -0.1)">
       <defs>
        <path id="DejaVuSans-34" d="M 2419 4116 
L 825 1625 
L 2419 1625 
L 2419 4116 
z
M 2253 4666 
L 3047 4666 
L 3047 1625 
L 3713 1625 
L 3713 1100 
L 3047 1100 
L 3047 0 
L 2419 0 
L 2419 1100 
L 313 1100 
L 313 1709 
L 2253 4666 
z
" transform="scale(0.015625)"/>
       </defs>
       <use xlink:href="#DejaVuSans-34"/>
       <use xlink:href="#DejaVuSans-30" transform="translate(63.623047 0)"/>
      </g>
     </g>
    </g>
    <g id="xtick_4">
     <g id="line2d_4">
      <g>
       <use xlink:href="#m212c298930" x="387.542023" y="778.84" style="stroke: #000000; stroke-width: 0.8"/>
      </g>
     </g>
     <g id="text_4">
      <!-- 60 -->
      <g transform="translate(381.179523 793.438437) scale(0.1 -0.1)">
       <defs>
        <path id="DejaVuSans-36" d="M 2113 2584 
Q 1688 2584 1439 2293 
Q 1191 2003 1191 1497 
Q 1191 994 1439 701 
Q 1688 409 2113 409 
Q 2538 409 2786 701 
Q 3034 994 3034 1497 
Q 3034 2003 2786 2293 
Q 2538 2584 2113 2584 
z
M 3366 4563 
L 3366 3988 
Q 3128 4100 2886 4159 
Q 2644 4219 2406 4219 
Q 1781 4219 1451 3797 
Q 1122 3375 1075 2522 
Q 1259 2794 1537 2939 
Q 1816 3084 2150 3084 
Q 2853 3084 3261 2657 
Q 3669 2231 3669 1497 
Q 3669 778 3244 343 
Q 2819 -91 2113 -91 
Q 1303 -91 875 529 
Q 447 1150 447 2328 
Q 447 3434 972 4092 
Q 1497 4750 2381 4750 
Q 2619 4750 2861 4703 
Q 3103 4656 3366 4563 
z
" transform="scale(0.015625)"/>
       </defs>
       <use xlink:href="#DejaVuSans-36"/>
       <use xlink:href="#DejaVuSans-30" transform="translate(63.623047 0)"/>
      </g>
     </g>
    </g>
    <g id="xtick_5">
     <g id="line2d_5">
      <g>
       <use xlink:href="#m212c298930" x="469.959364" y="778.84" style="stroke: #000000; stroke-width: 0.8"/>
      </g>
     </g>
     <g id="text_5">
      <!-- 80 -->
      <g transform="translate(463.596864 793.438437) scale(0.1 -0.1)">
       <defs>
        <path id="DejaVuSans-38" d="M 2034 2216 
Q 1584 2216 1326 1975 
Q 1069 1734 1069 1313 
Q 1069 891 1326 650 
Q 1584 409 2034 409 
Q 2484 409 2743 651 
Q 3003 894 3003 1313 
Q 3003 1734 2745 1975 
Q 2488 2216 2034 2216 
z
M 1403 2484 
Q 997 2584 770 2862 
Q 544 3141 544 3541 
Q 544 4100 942 4425 
Q 1341 4750 2034 4750 
Q 2731 4750 3128 4425 
Q 3525 4100 3525 3541 
Q 3525 3141 3298 2862 
Q 3072 2584 2669 2484 
Q 3125 2378 3379 2068 
Q 3634 1759 3634 1313 
Q 3634 634 3220 271 
Q 2806 -91 2034 -91 
Q 1263 -91 848 271 
Q 434 634 434 1313 
Q 434 1759 690 2068 
Q 947 2378 1403 2484 
z
M 1172 3481 
Q 1172 3119 1398 2916 
Q 1625 2713 2034 2713 
Q 2441 2713 2670 2916 
Q 2900 3119 2900 3481 
Q 2900 3844 2670 4047 
Q 2441 4250 2034 4250 
Q 1625 4250 1398 4047 
Q 1172 3844 1172 3481 
z
" transform="scale(0.015625)"/>
       </defs>
       <use xlink:href="#DejaVuSans-38"/>
       <use xlink:href="#DejaVuSans-30" transform="translate(63.623047 0)"/>
      </g>
     </g>
    </g>
    <g id="xtick_6">
     <g id="line2d_6">
      <g>
       <use xlink:href="#m212c298930" x="552.376705" y="778.84" style="stroke: #000000; stroke-width: 0.8"/>
      </g>
     </g>
     <g id="text_6">
      <!-- 100 -->
      <g transform="translate(542.832955 793.438437) scale(0.1 -0.1)">
       <defs>
        <path id="DejaVuSans-31" d="M 794 531 
L 1825 531 
L 1825 4091 
L 703 3866 
L 703 4441 
L 1819 4666 
L 2450 4666 
L 2450 531 
L 3481 531 
L 3481 0 
L 794 0 
L 794 531 
z
" transform="scale(0.015625)"/>
       </defs>
       <use xlink:href="#DejaVuSans-31"/>
       <use xlink:href="#DejaVuSans-30" transform="translate(63.623047 0)"/>
       <use xlink:href="#DejaVuSans-30" transform="translate(127.246094 0)"/>
      </g>
     </g>
    </g>
    <g id="xtick_7">
     <g id="line2d_7">
      <g>
       <use xlink:href="#m212c298930" x="634.794046" y="778.84" style="stroke: #000000; stroke-width: 0.8"/>
      </g>
     </g>
     <g id="text_7">
      <!-- 120 -->
      <g transform="translate(625.250296 793.438437) scale(0.1 -0.1)">
       <use xlink:href="#DejaVuSans-31"/>
       <use xlink:href="#DejaVuSans-32" transform="translate(63.623047 0)"/>
       <use xlink:href="#DejaVuSans-30" transform="translate(127.246094 0)"/>
      </g>
     </g>
    </g>
    <g id="xtick_8">
     <g id="line2d_8">
      <g>
       <use xlink:href="#m212c298930" x="717.211387" y="778.84" style="stroke: #000000; stroke-width: 0.8"/>
      </g>
     </g>
     <g id="text_8">
      <!-- 140 -->
      <g transform="translate(707.667637 793.438437) scale(0.1 -0.1)">
       <use xlink:href="#DejaVuSans-31"/>
       <use xlink:href="#DejaVuSans-34" transform="translate(63.623047 0)"/>
       <use xlink:href="#DejaVuSans-30" transform="translate(127.246094 0)"/>
      </g>
     </g>
    </g>
    <g id="xtick_9">
     <g id="line2d_9">
      <g>
       <use xlink:href="#m212c298930" x="799.628728" y="778.84" style="stroke: #000000; stroke-width: 0.8"/>
      </g>
     </g>
     <g id="text_9">
      <!-- 160 -->
      <g transform="translate(790.084978 793.438437) scale(0.1 -0.1)">
       <use xlink:href="#DejaVuSans-31"/>
       <use xlink:href="#DejaVuSans-36" transform="translate(63.623047 0)"/>
       <use xlink:href="#DejaVuSans-30" transform="translate(127.246094 0)"/>
      </g>
     </g>
    </g>
    <g id="text_10">
     <!-- Days since first activity in the log -->
     <g transform="translate(413.158281 807.116562) scale(0.1 -0.1)">
      <defs>
       <path id="DejaVuSans-44" d="M 1259 4147 
L 1259 519 
L 2022 519 
Q 2988 519 3436 956 
Q 3884 1394 3884 2338 
Q 3884 3275 3436 3711 
Q 2988 4147 2022 4147 
L 1259 4147 
z
M 628 4666 
L 1925 4666 
Q 3281 4666 3915 4102 
Q 4550 3538 4550 2338 
Q 4550 1131 3912 565 
Q 3275 0 1925 0 
L 628 0 
L 628 4666 
z
" transform="scale(0.015625)"/>
       <path id="DejaVuSans-61" d="M 2194 1759 
Q 1497 1759 1228 1600 
Q 959 1441 959 1056 
Q 959 750 1161 570 
Q 1363 391 1709 391 
Q 2188 391 2477 730 
Q 2766 1069 2766 1631 
L 2766 1759 
L 2194 1759 
z
M 3341 1997 
L 3341 0 
L 2766 0 
L 2766 531 
Q 2569 213 2275 61 
Q 1981 -91 1556 -91 
Q 1019 -91 701 211 
Q 384 513 384 1019 
Q 384 1609 779 1909 
Q 1175 2209 1959 2209 
L 2766 2209 
L 2766 2266 
Q 2766 2663 2505 2880 
Q 2244 3097 1772 3097 
Q 1472 3097 1187 3025 
Q 903 2953 641 2809 
L 641 3341 
Q 956 3463 1253 3523 
Q 1550 3584 1831 3584 
Q 2591 3584 2966 3190 
Q 3341 2797 3341 1997 
z
" transform="scale(0.015625)"/>
       <path id="DejaVuSans-79" d="M 2059 -325 
Q 1816 -950 1584 -1140 
Q 1353 -1331 966 -1331 
L 506 -1331 
L 506 -850 
L 844 -850 
Q 1081 -850 1212 -737 
Q 1344 -625 1503 -206 
L 1606 56 
L 191 3500 
L 800 3500 
L 1894 763 
L 2988 3500 
L 3597 3500 
L 2059 -325 
z
" transform="scale(0.015625)"/>
       <path id="DejaVuSans-73" d="M 2834 3397 
L 2834 2853 
Q 2591 2978 2328 3040 
Q 2066 3103 1784 3103 
Q 1356 3103 1142 2972 
Q 928 2841 928 2578 
Q 928 2378 1081 2264 
Q 1234 2150 1697 2047 
L 1894 2003 
Q 2506 1872 2764 1633 
Q 3022 1394 3022 966 
Q 3022 478 2636 193 
Q 2250 -91 1575 -91 
Q 1294 -91 989 -36 
Q 684 19 347 128 
L 347 722 
Q 666 556 975 473 
Q 1284 391 1588 391 
Q 1994 391 2212 530 
Q 2431 669 2431 922 
Q 2431 1156 2273 1281 
Q 2116 1406 1581 1522 
L 1381 1569 
Q 847 1681 609 1914 
Q 372 2147 372 2553 
Q 372 3047 722 3315 
Q 1072 3584 1716 3584 
Q 2034 3584 2315 3537 
Q 2597 3491 2834 3397 
z
" transform="scale(0.015625)"/>
       <path id="DejaVuSans-20" transform="scale(0.015625)"/>
       <path id="DejaVuSans-69" d="M 603 3500 
L 1178 3500 
L 1178 0 
L 603 0 
L 603 3500 
z
M 603 4863 
L 1178 4863 
L 1178 4134 
L 603 4134 
L 603 4863 
z
" transform="scale(0.015625)"/>
       <path id="DejaVuSans-6e" d="M 3513 2113 
L 3513 0 
L 2938 0 
L 2938 2094 
Q 2938 2591 2744 2837 
Q 2550 3084 2163 3084 
Q 1697 3084 1428 2787 
Q 1159 2491 1159 1978 
L 1159 0 
L 581 0 
L 581 3500 
L 1159 3500 
L 1159 2956 
Q 1366 3272 1645 3428 
Q 1925 3584 2291 3584 
Q 2894 3584 3203 3211 
Q 3513 2838 3513 2113 
z
" transform="scale(0.015625)"/>
       <path id="DejaVuSans-63" d="M 3122 3366 
L 3122 2828 
Q 2878 2963 2633 3030 
Q 2388 3097 2138 3097 
Q 1578 3097 1268 2742 
Q 959 2388 959 1747 
Q 959 1106 1268 751 
Q 1578 397 2138 397 
Q 2388 397 2633 464 
Q 2878 531 3122 666 
L 3122 134 
Q 2881 22 2623 -34 
Q 2366 -91 2075 -91 
Q 1284 -91 818 406 
Q 353 903 353 1747 
Q 353 2603 823 3093 
Q 1294 3584 2113 3584 
Q 2378 3584 2631 3529 
Q 2884 3475 3122 3366 
z
" transform="scale(0.015625)"/>
       <path id="DejaVuSans-65" d="M 3597 1894 
L 3597 1613 
L 953 1613 
Q 991 1019 1311 708 
Q 1631 397 2203 397 
Q 2534 397 2845 478 
Q 3156 559 3463 722 
L 3463 178 
Q 3153 47 2828 -22 
Q 2503 -91 2169 -91 
Q 1331 -91 842 396 
Q 353 884 353 1716 
Q 353 2575 817 3079 
Q 1281 3584 2069 3584 
Q 2775 3584 3186 3129 
Q 3597 2675 3597 1894 
z
M 3022 2063 
Q 3016 2534 2758 2815 
Q 2500 3097 2075 3097 
Q 1594 3097 1305 2825 
Q 1016 2553 972 2059 
L 3022 2063 
z
" transform="scale(0.015625)"/>
       <path id="DejaVuSans-66" d="M 2375 4863 
L 2375 4384 
L 1825 4384 
Q 1516 4384 1395 4259 
Q 1275 4134 1275 3809 
L 1275 3500 
L 2222 3500 
L 2222 3053 
L 1275 3053 
L 1275 0 
L 697 0 
L 697 3053 
L 147 3053 
L 147 3500 
L 697 3500 
L 697 3744 
Q 697 4328 969 4595 
Q 1241 4863 1831 4863 
L 2375 4863 
z
" transform="scale(0.015625)"/>
       <path id="DejaVuSans-72" d="M 2631 2963 
Q 2534 3019 2420 3045 
Q 2306 3072 2169 3072 
Q 1681 3072 1420 2755 
Q 1159 2438 1159 1844 
L 1159 0 
L 581 0 
L 581 3500 
L 1159 3500 
L 1159 2956 
Q 1341 3275 1631 3429 
Q 1922 3584 2338 3584 
Q 2397 3584 2469 3576 
Q 2541 3569 2628 3553 
L 2631 2963 
z
" transform="scale(0.015625)"/>
       <path id="DejaVuSans-74" d="M 1172 4494 
L 1172 3500 
L 2356 3500 
L 2356 3053 
L 1172 3053 
L 1172 1153 
Q 1172 725 1289 603 
Q 1406 481 1766 481 
L 2356 481 
L 2356 0 
L 1766 0 
Q 1100 0 847 248 
Q 594 497 594 1153 
L 594 3053 
L 172 3053 
L 172 3500 
L 594 3500 
L 594 4494 
L 1172 4494 
z
" transform="scale(0.015625)"/>
       <path id="DejaVuSans-76" d="M 191 3500 
L 800 3500 
L 1894 563 
L 2988 3500 
L 3597 3500 
L 2284 0 
L 1503 0 
L 191 3500 
z
" transform="scale(0.015625)"/>
       <path id="DejaVuSans-68" d="M 3513 2113 
L 3513 0 
L 2938 0 
L 2938 2094 
Q 2938 2591 2744 2837 
Q 2550 3084 2163 3084 
Q 1697 3084 1428 2787 
Q 1159 2491 1159 1978 
L 1159 0 
L 581 0 
L 581 4863 
L 1159 4863 
L 1159 2956 
Q 1366 3272 1645 3428 
Q 1925 3584 2291 3584 
Q 2894 3584 3203 3211 
Q 3513 2838 3513 2113 
z
" transform="scale(0.015625)"/>
       <path id="DejaVuSans-6c" d="M 603 4863 
L 1178 4863 
L 1178 0 
L 603 0 
L 603 4863 
z
" transform="scale(0.015625)"/>
       <path id="DejaVuSans-6f" d="M 1959 3097 
Q 1497 3097 1228 2736 
Q 959 2375 959 1747 
Q 959 1119 1226 758 
Q 1494 397 1959 397 
Q 2419 397 2687 759 
Q 2956 1122 2956 1747 
Q 2956 2369 2687 2733 
Q 2419 3097 1959 3097 
z
M 1959 3584 
Q 2709 3584 3137 3096 
Q 3566 2609 3566 1747 
Q 3566 888 3137 398 
Q 2709 -91 1959 -91 
Q 1206 -91 779 398 
Q 353 888 353 1747 
Q 353 2609 779 3096 
Q 1206 3584 1959 3584 
z
" transform="scale(0.015625)"/>
       <path id="DejaVuSans-67" d="M 2906 1791 
Q 2906 2416 2648 2759 
Q 2391 3103 1925 3103 
Q 1463 3103 1205 2759 
Q 947 2416 947 1791 
Q 947 1169 1205 825 
Q 1463 481 1925 481 
Q 2391 481 2648 825 
Q 2906 1169 2906 1791 
z
M 3481 434 
Q 3481 -459 3084 -895 
Q 2688 -1331 1869 -1331 
Q 1566 -1331 1297 -1286 
Q 1028 -1241 775 -1147 
L 775 -588 
Q 1028 -725 1275 -790 
Q 1522 -856 1778 -856 
Q 2344 -856 2625 -561 
Q 2906 -266 2906 331 
L 2906 616 
Q 2728 306 2450 153 
Q 2172 0 1784 0 
Q 1141 0 747 490 
Q 353 981 353 1791 
Q 353 2603 747 3093 
Q 1141 3584 1784 3584 
Q 2172 3584 2450 3431 
Q 2728 3278 2906 2969 
L 2906 3500 
L 3481 3500 
L 3481 434 
z
" transform="scale(0.015625)"/>
      </defs>
      <use xlink:href="#DejaVuSans-44"/>
      <use xlink:href="#DejaVuSans-61" transform="translate(77.001953 0)"/>
      <use xlink:href="#DejaVuSans-79" transform="translate(138.28125 0)"/>
      <use xlink:href="#DejaVuSans-73" transform="translate(197.460938 0)"/>
      <use xlink:href="#DejaVuSans-20" transform="translate(249.560547 0)"/>
      <use xlink:href="#DejaVuSans-73" transform="translate(281.347656 0)"/>
      <use xlink:href="#DejaVuSans-69" transform="translate(333.447266 0)"/>
      <use xlink:href="#DejaVuSans-6e" transform="translate(361.230469 0)"/>
      <use xlink:href="#DejaVuSans-63" transform="translate(424.609375 0)"/>
      <use xlink:href="#DejaVuSans-65" transform="translate(479.589844 0)"/>
      <use xlink:href="#DejaVuSans-20" transform="translate(541.113281 0)"/>
      <use xlink:href="#DejaVuSans-66" transform="translate(572.900391 0)"/>
      <use xlink:href="#DejaVuSans-69" transform="translate(608.105469 0)"/>
      <use xlink:href="#DejaVuSans-72" transform="translate(635.888672 0)"/>
      <use xlink:href="#DejaVuSans-73" transform="translate(677.001953 0)"/>
      <use xlink:href="#DejaVuSans-74" transform="translate(729.101562 0)"/>
      <use xlink:href="#DejaVuSans-20" transform="translate(768.310547 0)"/>
      <use xlink:href="#DejaVuSans-61" transform="translate(800.097656 0)"/>
      <use xlink:href="#DejaVuSans-63" transform="translate(861.376953 0)"/>
      <use xlink:href="#DejaVuSans-74" transform="translate(916.357422 0)"/>
      <use xlink:href="#DejaVuSans-69" transform="translate(955.566406 0)"/>
      <use xlink:href="#DejaVuSans-76" transform="translate(983.349609 0)"/>
      <use xlink:href="#DejaVuSans-69" transform="translate(1042.529297 0)"/>
      <use xlink:href="#DejaVuSans-74" transform="translate(1070.3125 0)"/>
      <use xlink:href="#DejaVuSans-79" transform="translate(1109.521484 0)"/>
      <use xlink:href="#DejaVuSans-20" transform="translate(1168.701172 0)"/>
      <use xlink:href="#DejaVuSans-69" transform="translate(1200.488281 0)"/>
      <use xlink:href="#DejaVuSans-6e" transform="translate(1228.271484 0)"/>
      <use xlink:href="#DejaVuSans-20" transform="translate(1291.650391 0)"/>
      <use xlink:href="#DejaVuSans-74" transform="translate(1323.4375 0)"/>
      <use xlink:href="#DejaVuSans-68" transform="translate(1362.646484 0)"/>
      <use xlink:href="#DejaVuSans-65" transform="translate(1426.025391 0)"/>
      <use xlink:href="#DejaVuSans-20" transform="translate(1487.548828 0)"/>
      <use xlink:href="#DejaVuSans-6c" transform="translate(1519.335938 0)"/>
      <use xlink:href="#DejaVuSans-6f" transform="translate(1547.119141 0)"/>
      <use xlink:href="#DejaVuSans-67" transform="translate(1608.300781 0)"/>
     </g>
    </g>
   </g>
   <g id="matplotlib.axis_2">
    <g id="ytick_1">
     <g id="line2d_10">
      <defs>
       <path id="m518762612c" d="M 0 0 
L -3.5 0 
" style="stroke: #000000; stroke-width: 0.8"/>
      </defs>
      <g>
       <use xlink:href="#m518762612c" x="140.29" y="737.426138" style="stroke: #000000; stroke-width: 0.8"/>
      </g>
     </g>
     <g id="text_11">
      <!-- dataset -->
      <g transform="translate(95.482188 741.225356) scale(0.1 -0.1)">
       <defs>
        <path id="DejaVuSans-64" d="M 2906 2969 
L 2906 4863 
L 3481 4863 
L 3481 0 
L 2906 0 
L 2906 525 
Q 2725 213 2448 61 
Q 2172 -91 1784 -91 
Q 1150 -91 751 415 
Q 353 922 353 1747 
Q 353 2572 751 3078 
Q 1150 3584 1784 3584 
Q 2172 3584 2448 3432 
Q 2725 3281 2906 2969 
z
M 947 1747 
Q 947 1113 1208 752 
Q 1469 391 1925 391 
Q 2381 391 2643 752 
Q 2906 1113 2906 1747 
Q 2906 2381 2643 2742 
Q 2381 3103 1925 3103 
Q 1469 3103 1208 2742 
Q 947 2381 947 1747 
z
" transform="scale(0.015625)"/>
       </defs>
       <use xlink:href="#DejaVuSans-64"/>
       <use xlink:href="#DejaVuSans-61" transform="translate(63.476562 0)"/>
       <use xlink:href="#DejaVuSans-74" transform="translate(124.755859 0)"/>
       <use xlink:href="#DejaVuSans-61" transform="translate(163.964844 0)"/>
       <use xlink:href="#DejaVuSans-73" transform="translate(225.244141 0)"/>
       <use xlink:href="#DejaVuSans-65" transform="translate(277.34375 0)"/>
       <use xlink:href="#DejaVuSans-74" transform="translate(338.867188 0)"/>
      </g>
     </g>
    </g>
    <g id="ytick_2">
     <g id="line2d_11">
      <g>
       <use xlink:href="#m518762612c" x="140.29" y="719.341481" style="stroke: #000000; stroke-width: 0.8"/>
      </g>
     </g>
     <g id="text_12">
      <!-- notepad -->
      <g transform="translate(91.935313 723.1407) scale(0.1 -0.1)">
       <defs>
        <path id="DejaVuSans-70" d="M 1159 525 
L 1159 -1331 
L 581 -1331 
L 581 3500 
L 1159 3500 
L 1159 2969 
Q 1341 3281 1617 3432 
Q 1894 3584 2278 3584 
Q 2916 3584 3314 3078 
Q 3713 2572 3713 1747 
Q 3713 922 3314 415 
Q 2916 -91 2278 -91 
Q 1894 -91 1617 61 
Q 1341 213 1159 525 
z
M 3116 1747 
Q 3116 2381 2855 2742 
Q 2594 3103 2138 3103 
Q 1681 3103 1420 2742 
Q 1159 2381 1159 1747 
Q 1159 1113 1420 752 
Q 1681 391 2138 391 
Q 2594 391 2855 752 
Q 3116 1113 3116 1747 
z
" transform="scale(0.015625)"/>
       </defs>
       <use xlink:href="#DejaVuSans-6e"/>
       <use xlink:href="#DejaVuSans-6f" transform="translate(63.378906 0)"/>
       <use xlink:href="#DejaVuSans-74" transform="translate(124.560547 0)"/>
       <use xlink:href="#DejaVuSans-65" transform="translate(163.769531 0)"/>
       <use xlink:href="#DejaVuSans-70" transform="translate(225.292969 0)"/>
       <use xlink:href="#DejaVuSans-61" transform="translate(288.769531 0)"/>
       <use xlink:href="#DejaVuSans-64" transform="translate(350.048828 0)"/>
      </g>
     </g>
    </g>
    <g id="ytick_3">
     <g id="line2d_12">
      <g>
       <use xlink:href="#m518762612c" x="140.29" y="701.256825" style="stroke: #000000; stroke-width: 0.8"/>
      </g>
     </g>
     <g id="text_13">
      <!-- zenodo -->
      <g transform="translate(96.965 705.056044) scale(0.1 -0.1)">
       <defs>
        <path id="DejaVuSans-7a" d="M 353 3500 
L 3084 3500 
L 3084 2975 
L 922 459 
L 3084 459 
L 3084 0 
L 275 0 
L 275 525 
L 2438 3041 
L 353 3041 
L 353 3500 
z
" transform="scale(0.015625)"/>
       </defs>
       <use xlink:href="#DejaVuSans-7a"/>
       <use xlink:href="#DejaVuSans-65" transform="translate(52.490234 0)"/>
       <use xlink:href="#DejaVuSans-6e" transform="translate(114.013672 0)"/>
       <use xlink:href="#DejaVuSans-6f" transform="translate(177.392578 0)"/>
       <use xlink:href="#DejaVuSans-64" transform="translate(238.574219 0)"/>
       <use xlink:href="#DejaVuSans-6f" transform="translate(302.050781 0)"/>
      </g>
     </g>
    </g>
    <g id="ytick_4">
     <g id="line2d_13">
      <g>
       <use xlink:href="#m518762612c" x="140.29" y="683.172169" style="stroke: #000000; stroke-width: 0.8"/>
      </g>
     </g>
     <g id="text_14">
      <!-- team -->
      <g transform="translate(107.347813 686.971388) scale(0.1 -0.1)">
       <defs>
        <path id="DejaVuSans-6d" d="M 3328 2828 
Q 3544 3216 3844 3400 
Q 4144 3584 4550 3584 
Q 5097 3584 5394 3201 
Q 5691 2819 5691 2113 
L 5691 0 
L 5113 0 
L 5113 2094 
Q 5113 2597 4934 2840 
Q 4756 3084 4391 3084 
Q 3944 3084 3684 2787 
Q 3425 2491 3425 1978 
L 3425 0 
L 2847 0 
L 2847 2094 
Q 2847 2600 2669 2842 
Q 2491 3084 2119 3084 
Q 1678 3084 1418 2786 
Q 1159 2488 1159 1978 
L 1159 0 
L 581 0 
L 581 3500 
L 1159 3500 
L 1159 2956 
Q 1356 3278 1631 3431 
Q 1906 3584 2284 3584 
Q 2666 3584 2933 3390 
Q 3200 3197 3328 2828 
z
" transform="scale(0.015625)"/>
       </defs>
       <use xlink:href="#DejaVuSans-74"/>
       <use xlink:href="#DejaVuSans-65" transform="translate(39.208984 0)"/>
       <use xlink:href="#DejaVuSans-61" transform="translate(100.732422 0)"/>
       <use xlink:href="#DejaVuSans-6d" transform="translate(162.011719 0)"/>
      </g>
     </g>
    </g>
    <g id="ytick_5">
     <g id="line2d_14">
      <g>
       <use xlink:href="#m518762612c" x="140.29" y="665.087513" style="stroke: #000000; stroke-width: 0.8"/>
      </g>
     </g>
     <g id="text_15">
      <!-- public -->
      <g transform="translate(103.200938 668.886732) scale(0.1 -0.1)">
       <defs>
        <path id="DejaVuSans-75" d="M 544 1381 
L 544 3500 
L 1119 3500 
L 1119 1403 
Q 1119 906 1312 657 
Q 1506 409 1894 409 
Q 2359 409 2629 706 
Q 2900 1003 2900 1516 
L 2900 3500 
L 3475 3500 
L 3475 0 
L 2900 0 
L 2900 538 
Q 2691 219 2414 64 
Q 2138 -91 1772 -91 
Q 1169 -91 856 284 
Q 544 659 544 1381 
z
M 1991 3584 
L 1991 3584 
z
" transform="scale(0.015625)"/>
        <path id="DejaVuSans-62" d="M 3116 1747 
Q 3116 2381 2855 2742 
Q 2594 3103 2138 3103 
Q 1681 3103 1420 2742 
Q 1159 2381 1159 1747 
Q 1159 1113 1420 752 
Q 1681 391 2138 391 
Q 2594 391 2855 752 
Q 3116 1113 3116 1747 
z
M 1159 2969 
Q 1341 3281 1617 3432 
Q 1894 3584 2278 3584 
Q 2916 3584 3314 3078 
Q 3713 2572 3713 1747 
Q 3713 922 3314 415 
Q 2916 -91 2278 -91 
Q 1894 -91 1617 61 
Q 1341 213 1159 525 
L 1159 0 
L 581 0 
L 581 4863 
L 1159 4863 
L 1159 2969 
z
" transform="scale(0.015625)"/>
       </defs>
       <use xlink:href="#DejaVuSans-70"/>
       <use xlink:href="#DejaVuSans-75" transform="translate(63.476562 0)"/>
       <use xlink:href="#DejaVuSans-62" transform="translate(126.855469 0)"/>
       <use xlink:href="#DejaVuSans-6c" transform="translate(190.332031 0)"/>
       <use xlink:href="#DejaVuSans-69" transform="translate(218.115234 0)"/>
       <use xlink:href="#DejaVuSans-63" transform="translate(245.898438 0)"/>
      </g>
     </g>
    </g>
    <g id="ytick_6">
     <g id="line2d_15">
      <g>
       <use xlink:href="#m518762612c" x="140.29" y="647.002857" style="stroke: #000000; stroke-width: 0.8"/>
      </g>
     </g>
     <g id="text_16">
      <!-- auth -->
      <g transform="translate(110.566563 650.802076) scale(0.1 -0.1)">
       <use xlink:href="#DejaVuSans-61"/>
       <use xlink:href="#DejaVuSans-75" transform="translate(61.279297 0)"/>
       <use xlink:href="#DejaVuSans-74" transform="translate(124.658203 0)"/>
       <use xlink:href="#DejaVuSans-68" transform="translate(163.867188 0)"/>
      </g>
     </g>
    </g>
    <g id="ytick_7">
     <g id="line2d_16">
      <g>
       <use xlink:href="#m518762612c" x="140.29" y="628.918201" style="stroke: #000000; stroke-width: 0.8"/>
      </g>
     </g>
     <g id="text_17">
      <!-- profile -->
      <g transform="translate(101.707188 632.71742) scale(0.1 -0.1)">
       <use xlink:href="#DejaVuSans-70"/>
       <use xlink:href="#DejaVuSans-72" transform="translate(63.476562 0)"/>
       <use xlink:href="#DejaVuSans-6f" transform="translate(102.339844 0)"/>
       <use xlink:href="#DejaVuSans-66" transform="translate(163.521484 0)"/>
       <use xlink:href="#DejaVuSans-69" transform="translate(198.726562 0)"/>
       <use xlink:href="#DejaVuSans-6c" transform="translate(226.509766 0)"/>
       <use xlink:href="#DejaVuSans-65" transform="translate(254.292969 0)"/>
      </g>
     </g>
    </g>
    <g id="ytick_8">
     <g id="line2d_17">
      <g>
       <use xlink:href="#m518762612c" x="140.29" y="610.833545" style="stroke: #000000; stroke-width: 0.8"/>
      </g>
     </g>
     <g id="text_18">
      <!-- hubfile -->
      <g transform="translate(99.036875 614.632764) scale(0.1 -0.1)">
       <use xlink:href="#DejaVuSans-68"/>
       <use xlink:href="#DejaVuSans-75" transform="translate(63.378906 0)"/>
       <use xlink:href="#DejaVuSans-62" transform="translate(126.757812 0)"/>
       <use xlink:href="#DejaVuSans-66" transform="translate(190.234375 0)"/>
       <use xlink:href="#DejaVuSans-69" transform="translate(225.439453 0)"/>
       <use xlink:href="#DejaVuSans-6c" transform="translate(253.222656 0)"/>
       <use xlink:href="#DejaVuSans-65" transform="translate(281.005859 0)"/>
      </g>
     </g>
    </g>
    <g id="ytick_9">
     <g id="line2d_18">
      <g>
       <use xlink:href="#m518762612c" x="140.29" y="592.748889" style="stroke: #000000; stroke-width: 0.8"/>
      </g>
     </g>
     <g id="text_19">
      <!-- flamapy -->
      <g transform="translate(92.7275 596.548108) scale(0.1 -0.1)">
       <use xlink:href="#DejaVuSans-66"/>
       <use xlink:href="#DejaVuSans-6c" transform="translate(35.205078 0)"/>
       <use xlink:href="#DejaVuSans-61" transform="translate(62.988281 0)"/>
       <use xlink:href="#DejaVuSans-6d" transform="translate(124.267578 0)"/>
       <use xlink:href="#DejaVuSans-61" transform="translate(221.679688 0)"/>
       <use xlink:href="#DejaVuSans-70" transform="translate(282.958984 0)"/>
       <use xlink:href="#DejaVuSans-79" transform="translate(346.435547 0)"/>
      </g>
     </g>
    </g>
    <g id="ytick_10">
     <g id="line2d_19">
      <g>
       <use xlink:href="#m518762612c" x="140.29" y="574.664233" style="stroke: #000000; stroke-width: 0.8"/>
      </g>
     </g>
     <g id="text_20">
      <!-- featuremodel -->
      <g transform="translate(66.0525 578.463452) scale(0.1 -0.1)">
       <use xlink:href="#DejaVuSans-66"/>
       <use xlink:href="#DejaVuSans-65" transform="translate(35.205078 0)"/>
       <use xlink:href="#DejaVuSans-61" transform="translate(96.728516 0)"/>
       <use xlink:href="#DejaVuSans-74" transform="translate(158.007812 0)"/>
       <use xlink:href="#DejaVuSans-75" transform="translate(197.216797 0)"/>
       <use xlink:href="#DejaVuSans-72" transform="translate(260.595703 0)"/>
       <use xlink:href="#DejaVuSans-65" transform="translate(299.458984 0)"/>
       <use xlink:href="#DejaVuSans-6d" transform="translate(360.982422 0)"/>
       <use xlink:href="#DejaVuSans-6f" transform="translate(458.394531 0)"/>
       <use xlink:href="#DejaVuSans-64" transform="translate(519.576172 0)"/>
       <use xlink:href="#DejaVuSans-65" transform="translate(583.052734 0)"/>
       <use xlink:href="#DejaVuSans-6c" transform="translate(644.576172 0)"/>
      </g>
     </g>
    </g>
    <g id="ytick_11">
     <g id="line2d_20">
      <g>
       <use xlink:href="#m518762612c" x="140.29" y="556.579577" style="stroke: #000000; stroke-width: 0.8"/>
      </g>
     </g>
     <g id="text_21">
      <!-- webhook -->
      <g transform="translate(88.244688 560.378795) scale(0.1 -0.1)">
       <defs>
        <path id="DejaVuSans-77" d="M 269 3500 
L 844 3500 
L 1563 769 
L 2278 3500 
L 2956 3500 
L 3675 769 
L 4391 3500 
L 4966 3500 
L 4050 0 
L 3372 0 
L 2619 2869 
L 1863 0 
L 1184 0 
L 269 3500 
z
" transform="scale(0.015625)"/>
        <path id="DejaVuSans-6b" d="M 581 4863 
L 1159 4863 
L 1159 1991 
L 2875 3500 
L 3609 3500 
L 1753 1863 
L 3688 0 
L 2938 0 
L 1159 1709 
L 1159 0 
L 581 0 
L 581 4863 
z
" transform="scale(0.015625)"/>
       </defs>
       <use xlink:href="#DejaVuSans-77"/>
       <use xlink:href="#DejaVuSans-65" transform="translate(81.787109 0)"/>
       <use xlink:href="#DejaVuSans-62" transform="translate(143.310547 0)"/>
       <use xlink:href="#DejaVuSans-68" transform="translate(206.787109 0)"/>
       <use xlink:href="#DejaVuSans-6f" transform="translate(270.166016 0)"/>
       <use xlink:href="#DejaVuSans-6f" transform="translate(331.347656 0)"/>
       <use xlink:href="#DejaVuSans-6b" transform="translate(392.529297 0)"/>
      </g>
     </g>
    </g>
    <g id="ytick_12">
     <g id="line2d_21">
      <g>
       <use xlink:href="#m518762612c" x="140.29" y="538.494921" style="stroke: #000000; stroke-width: 0.8"/>
      </g>
     </g>
     <g id="text_22">
      <!-- explore -->
      <g transform="translate(96.10875 542.294139) scale(0.1 -0.1)">
       <defs>
        <path id="DejaVuSans-78" d="M 3513 3500 
L 2247 1797 
L 3578 0 
L 2900 0 
L 1881 1375 
L 863 0 
L 184 0 
L 1544 1831 
L 300 3500 
L 978 3500 
L 1906 2253 
L 2834 3500 
L 3513 3500 
z
" transform="scale(0.015625)"/>
       </defs>
       <use xlink:href="#DejaVuSans-65"/>
       <use xlink:href="#DejaVuSans-78" transform="translate(59.773438 0)"/>
       <use xlink:href="#DejaVuSans-70" transform="translate(118.953125 0)"/>
       <use xlink:href="#DejaVuSans-6c" transform="translate(182.429688 0)"/>
       <use xlink:href="#DejaVuSans-6f" transform="translate(210.212891 0)"/>
       <use xlink:href="#DejaVuSans-72" transform="translate(271.394531 0)"/>
       <use xlink:href="#DejaVuSans-65" transform="translate(310.257812 0)"/>
      </g>
     </g>
    </g>
    <g id="ytick_13">
     <g id="line2d_22">
      <g>
       <use xlink:href="#m518762612c" x="140.29" y="520.410265" style="stroke: #000000; stroke-width: 0.8"/>
      </g>
     </g>
     <g id="text_23">
      <!-- community -->
      <g transform="translate(76.899375 524.209483) scale(0.1 -0.1)">
       <use xlink:href="#DejaVuSans-63"/>
       <use xlink:href="#DejaVuSans-6f" transform="translate(54.980469 0)"/>
       <use xlink:href="#DejaVuSans-6d" transform="translate(116.162109 0)"/>
       <use xlink:href="#DejaVuSans-6d" transform="translate(213.574219 0)"/>
       <use xlink:href="#DejaVuSans-75" transform="translate(310.986328 0)"/>
       <use xlink:href="#DejaVuSans-6e" transform="translate(374.365234 0)"/>
       <use xlink:href="#DejaVuSans-69" transform="translate(437.744141 0)"/>
       <use xlink:href="#DejaVuSans-74" transform="translate(465.527344 0)"/>
       <use xlink:href="#DejaVuSans-79" transform="translate(504.736328 0)"/>
      </g>
     </g>
    </g>
    <g id="ytick_14">
     <g id="line2d_23">
      <g>
       <use xlink:href="#m518762612c" x="140.29" y="502.325608" style="stroke: #000000; stroke-width: 0.8"/>
      </g>
     </g>
     <g id="text_24">
      <!-- fakenodo -->
      <g transform="translate(87.136875 506.124827) scale(0.1 -0.1)">
       <use xlink:href="#DejaVuSans-66"/>
       <use xlink:href="#DejaVuSans-61" transform="translate(35.205078 0)"/>
       <use xlink:href="#DejaVuSans-6b" transform="translate(96.484375 0)"/>
       <use xlink:href="#DejaVuSans-65" transform="translate(150.769531 0)"/>
       <use xlink:href="#DejaVuSans-6e" transform="translate(212.292969 0)"/>
       <use xlink:href="#DejaVuSans-6f" transform="translate(275.671875 0)"/>
       <use xlink:href="#DejaVuSans-64" transform="translate(336.853516 0)"/>
       <use xlink:href="#DejaVuSans-6f" transform="translate(400.330078 0)"/>
      </g>
     </g>
    </g>
    <g id="ytick_15">
     <g id="line2d_24">
      <g>
       <use xlink:href="#m518762612c" x="140.29" y="484.240952" style="stroke: #000000; stroke-width: 0.8"/>
      </g>
     </g>
     <g id="text_25">
      <!-- mailconfiguration -->
      <g transform="translate(45.532188 488.040171) scale(0.1 -0.1)">
       <use xlink:href="#DejaVuSans-6d"/>
       <use xlink:href="#DejaVuSans-61" transform="translate(97.412109 0)"/>
       <use xlink:href="#DejaVuSans-69" transform="translate(158.691406 0)"/>
       <use xlink:href="#DejaVuSans-6c" transform="translate(186.474609 0)"/>
       <use xlink:href="#DejaVuSans-63" transform="translate(214.257812 0)"/>
       <use xlink:href="#DejaVuSans-6f" transform="translate(269.238281 0)"/>
       <use xlink:href="#DejaVuSans-6e" transform="translate(330.419922 0)"/>
       <use xlink:href="#DejaVuSans-66" transform="translate(393.798828 0)"/>
       <use xlink:href="#DejaVuSans-69" transform="translate(429.003906 0)"/>
       <use xlink:href="#DejaVuSans-67" transform="translate(456.787109 0)"/>
       <use xlink:href="#DejaVuSans-75" transform="translate(520.263672 0)"/>
       <use xlink:href="#DejaVuSans-72" transform="translate(583.642578 0)"/>
       <use xlink:href="#DejaVuSans-61" transform="translate(624.755859 0)"/>
       <use xlink:href="#DejaVuSans-74" transform="translate(686.035156 0)"/>
       <use xlink:href="#DejaVuSans-69" transform="translate(725.244141 0)"/>
       <use xlink:href="#DejaVuSans-6f" transform="translate(753.027344 0)"/>
       <use xlink:href="#DejaVuSans-6e" transform="translate(814.208984 0)"/>
      </g>
     </g>
    </g>
    <g id="ytick_16">
     <g id="line2d_25">
      <g>
       <use xlink:href="#m518762612c" x="140.29" y="466.156296" style="stroke: #000000; stroke-width: 0.8"/>
      </g>
     </g>
     <g id="text_26">
      <!-- signupvalidation -->
      <g transform="translate(50.69625 469.955515) scale(0.1 -0.1)">
       <use xlink:href="#DejaVuSans-73"/>
       <use xlink:href="#DejaVuSans-69" transform="translate(52.099609 0)"/>
       <use xlink:href="#DejaVuSans-67" transform="translate(79.882812 0)"/>
       <use xlink:href="#DejaVuSans-6e" transform="translate(143.359375 0)"/>
       <use xlink:href="#DejaVuSans-75" transform="translate(206.738281 0)"/>
       <use xlink:href="#DejaVuSans-70" transform="translate(270.117188 0)"/>
       <use xlink:href="#DejaVuSans-76" transform="translate(333.59375 0)"/>
       <use xlink:href="#DejaVuSans-61" transform="translate(392.773438 0)"/>
       <use xlink:href="#DejaVuSans-6c" transform="translate(454.052734 0)"/>
       <use xlink:href="#DejaVuSans-69" transform="translate(481.835938 0)"/>
       <use xlink:href="#DejaVuSans-64" transform="translate(509.619141 0)"/>
       <use xlink:href="#DejaVuSans-61" transform="translate(573.095703 0)"/>
       <use xlink:href="#DejaVuSans-74" transform="translate(634.375 0)"/>
       <use xlink:href="#DejaVuSans-69" transform="translate(673.583984 0)"/>
       <use xlink:href="#DejaVuSans-6f" transform="translate(701.367188 0)"/>
       <use xlink:href="#DejaVuSans-6e" transform="translate(762.548828 0)"/>
      </g>
     </g>
    </g>
    <g id="ytick_17">
     <g id="line2d_26">
      <g>
       <use xlink:href="#m518762612c" x="140.29" y="448.07164" style="stroke: #000000; stroke-width: 0.8"/>
      </g>
     </g>
     <g id="text_27">
      <!-- password -->
      <g transform="translate(85.813438 451.870859) scale(0.1 -0.1)">
       <use xlink:href="#DejaVuSans-70"/>
       <use xlink:href="#DejaVuSans-61" transform="translate(63.476562 0)"/>
       <use xlink:href="#DejaVuSans-73" transform="translate(124.755859 0)"/>
       <use xlink:href="#DejaVuSans-73" transform="translate(176.855469 0)"/>
       <use xlink:href="#DejaVuSans-77" transform="translate(228.955078 0)"/>
       <use xlink:href="#DejaVuSans-6f" transform="translate(310.742188 0)"/>
       <use xlink:href="#DejaVuSans-72" transform="translate(371.923828 0)"/>
       <use xlink:href="#DejaVuSans-64" transform="translate(411.287109 0)"/>
      </g>
     </g>
    </g>
    <g id="ytick_18">
     <g id="line2d_27">
      <g>
       <use xlink:href="#m518762612c" x="140.29" y="429.986984" style="stroke: #000000; stroke-width: 0.8"/>
      </g>
     </g>
     <g id="text_28">
      <!-- chatbot -->
      <g transform="translate(95.018125 433.786203) scale(0.1 -0.1)">
       <use xlink:href="#DejaVuSans-63"/>
       <use xlink:href="#DejaVuSans-68" transform="translate(54.980469 0)"/>
       <use xlink:href="#DejaVuSans-61" transform="translate(118.359375 0)"/>
       <use xlink:href="#DejaVuSans-74" transform="translate(179.638672 0)"/>
       <use xlink:href="#DejaVuSans-62" transform="translate(218.847656 0)"/>
       <use xlink:href="#DejaVuSans-6f" transform="translate(282.324219 0)"/>
       <use xlink:href="#DejaVuSans-74" transform="translate(343.505859 0)"/>
      </g>
     </g>
    </g>
    <g id="ytick_19">
     <g id="line2d_28">
      <g>
       <use xlink:href="#m518762612c" x="140.29" y="411.902328" style="stroke: #000000; stroke-width: 0.8"/>
      </g>
     </g>
     <g id="text_29">
      <!-- diplomas -->
      <g transform="translate(87.84 415.701547) scale(0.1 -0.1)">
       <use xlink:href="#DejaVuSans-64"/>
       <use xlink:href="#DejaVuSans-69" transform="translate(63.476562 0)"/>
       <use xlink:href="#DejaVuSans-70" transform="translate(91.259766 0)"/>
       <use xlink:href="#DejaVuSans-6c" transform="translate(154.736328 0)"/>
       <use xlink:href="#DejaVuSans-6f" transform="translate(182.519531 0)"/>
       <use xlink:href="#DejaVuSans-6d" transform="translate(243.701172 0)"/>
       <use xlink:href="#DejaVuSans-61" transform="translate(341.113281 0)"/>
       <use xlink:href="#DejaVuSans-73" transform="translate(402.392578 0)"/>
      </g>
     </g>
    </g>
    <g id="ytick_20">
     <g id="line2d_29">
      <g>
       <use xlink:href="#m518762612c" x="140.29" y="393.817672" style="stroke: #000000; stroke-width: 0.8"/>
      </g>
     </g>
     <g id="text_30">
      <!-- github -->
      <g transform="translate(101.219688 397.616891) scale(0.1 -0.1)">
       <use xlink:href="#DejaVuSans-67"/>
       <use xlink:href="#DejaVuSans-69" transform="translate(63.476562 0)"/>
       <use xlink:href="#DejaVuSans-74" transform="translate(91.259766 0)"/>
       <use xlink:href="#DejaVuSans-68" transform="translate(130.46875 0)"/>
       <use xlink:href="#DejaVuSans-75" transform="translate(193.847656 0)"/>
       <use xlink:href="#DejaVuSans-62" transform="translate(257.226562 0)"/>
      </g>
     </g>
    </g>
    <g id="ytick_21">
     <g id="line2d_30">
      <g>
       <use xlink:href="#m518762612c" x="140.29" y="375.733016" style="stroke: #000000; stroke-width: 0.8"/>
      </g>
     </g>
     <g id="text_31">
      <!-- mail -->
      <g transform="translate(111.865 379.532235) scale(0.1 -0.1)">
       <use xlink:href="#DejaVuSans-6d"/>
       <use xlink:href="#DejaVuSans-61" transform="translate(97.412109 0)"/>
       <use xlink:href="#DejaVuSans-69" transform="translate(158.691406 0)"/>
       <use xlink:href="#DejaVuSans-6c" transform="translate(186.474609 0)"/>
      </g>
     </g>
    </g>
    <g id="ytick_22">
     <g id="line2d_31">
      <g>
       <use xlink:href="#m518762612c" x="140.29" y="357.64836" style="stroke: #000000; stroke-width: 0.8"/>
      </g>
     </g>
     <g id="text_32">
      <!-- dashboard -->
      <g transform="translate(80.386875 361.447579) scale(0.1 -0.1)">
       <use xlink:href="#DejaVuSans-64"/>
       <use xlink:href="#DejaVuSans-61" transform="translate(63.476562 0)"/>
       <use xlink:href="#DejaVuSans-73" transform="translate(124.755859 0)"/>
       <use xlink:href="#DejaVuSans-68" transform="translate(176.855469 0)"/>
       <use xlink:href="#DejaVuSans-62" transform="translate(240.234375 0)"/>
       <use xlink:href="#DejaVuSans-6f" transform="translate(303.710938 0)"/>
       <use xlink:href="#DejaVuSans-61" transform="translate(364.892578 0)"/>
       <use xlink:href="#DejaVuSans-72" transform="translate(426.171875 0)"/>
       <use xlink:href="#DejaVuSans-64" transform="translate(465.535156 0)"/>
      </g>
     </g>
    </g>
    <g id="ytick_23">
     <g id="line2d_32">
      <g>
       <use xlink:href="#m518762612c" x="140.29" y="339.563704" style="stroke: #000000; stroke-width: 0.8"/>
      </g>
     </g>
     <g id="text_33">
      <!-- botintegration -->
      <g transform="translate(61.97125 343.362922) scale(0.1 -0.1)">
       <use xlink:href="#DejaVuSans-62"/>
       <use xlink:href="#DejaVuSans-6f" transform="translate(63.476562 0)"/>
       <use xlink:href="#DejaVuSans-74" transform="translate(124.658203 0)"/>
       <use xlink:href="#DejaVuSans-69" transform="translate(163.867188 0)"/>
       <use xlink:href="#DejaVuSans-6e" transform="translate(191.650391 0)"/>
       <use xlink:href="#DejaVuSans-74" transform="translate(255.029297 0)"/>
       <use xlink:href="#DejaVuSans-65" transform="translate(294.238281 0)"/>
       <use xlink:href="#DejaVuSans-67" transform="translate(355.761719 0)"/>
       <use xlink:href="#DejaVuSans-72" transform="translate(419.238281 0)"/>
       <use xlink:href="#DejaVuSans-61" transform="translate(460.351562 0)"/>
       <use xlink:href="#DejaVuSans-74" transform="translate(521.630859 0)"/>
       <use xlink:href="#DejaVuSans-69" transform="translate(560.839844 0)"/>
       <use xlink:href="#DejaVuSans-6f" transform="translate(588.623047 0)"/>
       <use xlink:href="#DejaVuSans-6e" transform="translate(649.804688 0)"/>
      </g>
     </g>
    </g>
    <g id="ytick_24">
     <g id="line2d_33">
      <g>
       <use xlink:href="#m518762612c" x="140.29" y="321.479048" style="stroke: #000000; stroke-width: 0.8"/>
      </g>
     </g>
     <g id="text_34">
      <!-- exploreuvl -->
      <g transform="translate(81.074375 325.278266) scale(0.1 -0.1)">
       <use xlink:href="#DejaVuSans-65"/>
       <use xlink:href="#DejaVuSans-78" transform="translate(59.773438 0)"/>
       <use xlink:href="#DejaVuSans-70" transform="translate(118.953125 0)"/>
       <use xlink:href="#DejaVuSans-6c" transform="translate(182.429688 0)"/>
       <use xlink:href="#DejaVuSans-6f" transform="translate(210.212891 0)"/>
       <use xlink:href="#DejaVuSans-72" transform="translate(271.394531 0)"/>
       <use xlink:href="#DejaVuSans-65" transform="translate(310.257812 0)"/>
       <use xlink:href="#DejaVuSans-75" transform="translate(371.78125 0)"/>
       <use xlink:href="#DejaVuSans-76" transform="translate(435.160156 0)"/>
       <use xlink:href="#DejaVuSans-6c" transform="translate(494.339844 0)"/>
      </g>
     </g>
    </g>
    <g id="ytick_25">
     <g id="line2d_34">
      <g>
       <use xlink:href="#m518762612c" x="140.29" y="303.394392" style="stroke: #000000; stroke-width: 0.8"/>
      </g>
     </g>
     <g id="text_35">
      <!-- api -->
      <g transform="translate(118.035313 307.19361) scale(0.1 -0.1)">
       <use xlink:href="#DejaVuSans-61"/>
       <use xlink:href="#DejaVuSans-70" transform="translate(61.279297 0)"/>
       <use xlink:href="#DejaVuSans-69" transform="translate(124.755859 0)"/>
      </g>
     </g>
    </g>
    <g id="ytick_26">
     <g id="line2d_35">
      <g>
       <use xlink:href="#m518762612c" x="140.29" y="285.309735" style="stroke: #000000; stroke-width: 0.8"/>
      </g>
     </g>
     <g id="text_36">
      <!-- email -->
      <g transform="translate(105.711875 289.108954) scale(0.1 -0.1)">
       <use xlink:href="#DejaVuSans-65"/>
       <use xlink:href="#DejaVuSans-6d" transform="translate(61.523438 0)"/>
       <use xlink:href="#DejaVuSans-61" transform="translate(158.935547 0)"/>
       <use xlink:href="#DejaVuSans-69" transform="translate(220.214844 0)"/>
       <use xlink:href="#DejaVuSans-6c" transform="translate(247.998047 0)"/>
      </g>
     </g>
    </g>
    <g id="ytick_27">
     <g id="line2d_36">
      <g>
       <use xlink:href="#m518762612c" x="140.29" y="267.225079" style="stroke: #000000; stroke-width: 0.8"/>
      </g>
     </g>
     <g id="text_37">
      <!-- forgotPassword -->
      <g transform="translate(56.619688 271.024298) scale(0.1 -0.1)">
       <defs>
        <path id="DejaVuSans-50" d="M 1259 4147 
L 1259 2394 
L 2053 2394 
Q 2494 2394 2734 2622 
Q 2975 2850 2975 3272 
Q 2975 3691 2734 3919 
Q 2494 4147 2053 4147 
L 1259 4147 
z
M 628 4666 
L 2053 4666 
Q 2838 4666 3239 4311 
Q 3641 3956 3641 3272 
Q 3641 2581 3239 2228 
Q 2838 1875 2053 1875 
L 1259 1875 
L 1259 0 
L 628 0 
L 628 4666 
z
" transform="scale(0.015625)"/>
       </defs>
       <use xlink:href="#DejaVuSans-66"/>
       <use xlink:href="#DejaVuSans-6f" transform="translate(35.205078 0)"/>
       <use xlink:href="#DejaVuSans-72" transform="translate(96.386719 0)"/>
       <use xlink:href="#DejaVuSans-67" transform="translate(135.75 0)"/>
       <use xlink:href="#DejaVuSans-6f" transform="translate(199.226562 0)"/>
       <use xlink:href="#DejaVuSans-74" transform="translate(260.408203 0)"/>
       <use xlink:href="#DejaVuSans-50" transform="translate(299.617188 0)"/>
       <use xlink:href="#DejaVuSans-61" transform="translate(355.419922 0)"/>
       <use xlink:href="#DejaVuSans-73" transform="translate(416.699219 0)"/>
       <use xlink:href="#DejaVuSans-73" transform="translate(468.798828 0)"/>
       <use xlink:href="#DejaVuSans-77" transform="translate(520.898438 0)"/>
       <use xlink:href="#DejaVuSans-6f" transform="translate(602.685547 0)"/>
       <use xlink:href="#DejaVuSans-72" transform="translate(663.867188 0)"/>
       <use xlink:href="#DejaVuSans-64" transform="translate(703.230469 0)"/>
      </g>
     </g>
    </g>
    <g id="ytick_28">
     <g id="line2d_37">
      <g>
       <use xlink:href="#m518762612c" x="140.29" y="249.140423" style="stroke: #000000; stroke-width: 0.8"/>
      </g>
     </g>
     <g id="text_38">
      <!-- rating -->
      <g transform="translate(103.666563 252.939642) scale(0.1 -0.1)">
       <use xlink:href="#DejaVuSans-72"/>
       <use xlink:href="#DejaVuSans-61" transform="translate(41.113281 0)"/>
       <use xlink:href="#DejaVuSans-74" transform="translate(102.392578 0)"/>
       <use xlink:href="#DejaVuSans-69" transform="translate(141.601562 0)"/>
       <use xlink:href="#DejaVuSans-6e" transform="translate(169.384766 0)"/>
       <use xlink:href="#DejaVuSans-67" transform="translate(232.763672 0)"/>
      </g>
     </g>
    </g>
    <g id="ytick_29">
     <g id="line2d_38">
      <g>
       <use xlink:href="#m518762612c" x="140.29" y="231.055767" style="stroke: #000000; stroke-width: 0.8"/>
      </g>
     </g>
     <g id="text_39">
      <!-- download -->
      <g transform="translate(84.93375 234.854986) scale(0.1 -0.1)">
       <use xlink:href="#DejaVuSans-64"/>
       <use xlink:href="#DejaVuSans-6f" transform="translate(63.476562 0)"/>
       <use xlink:href="#DejaVuSans-77" transform="translate(124.658203 0)"/>
       <use xlink:href="#DejaVuSans-6e" transform="translate(206.445312 0)"/>
       <use xlink:href="#DejaVuSans-6c" transform="translate(269.824219 0)"/>
       <use xlink:href="#DejaVuSans-6f" transform="translate(297.607422 0)"/>
       <use xlink:href="#DejaVuSans-61" transform="translate(358.789062 0)"/>
       <use xlink:href="#DejaVuSans-64" transform="translate(420.068359 0)"/>
      </g>
     </g>
    </g>
    <g id="ytick_30">
     <g id="line2d_39">
      <g>
       <use xlink:href="#m518762612c" x="140.29" y="212.971111" style="stroke: #000000; stroke-width: 0.8"/>
      </g>
     </g>
     <g id="text_40">
      <!-- bot -->
      <g transform="translate(116.9025 216.77033) scale(0.1 -0.1)">
       <use xlink:href="#DejaVuSans-62"/>
       <use xlink:href="#DejaVuSans-6f" transform="translate(63.476562 0)"/>
       <use xlink:href="#DejaVuSans-74" transform="translate(124.658203 0)"/>
      </g>
     </g>
    </g>
    <g id="ytick_31">
     <g id="line2d_40">
      <g>
       <use xlink:href="#m518762612c" x="140.29" y="194.886455" style="stroke: #000000; stroke-width: 0.8"/>
      </g>
     </g>
     <g id="text_41">
      <!-- telegram_bot -->
      <g transform="translate(66.569688 198.685674) scale(0.1 -0.1)">
       <defs>
        <path id="DejaVuSans-5f" d="M 3263 -1063 
L 3263 -1509 
L -63 -1509 
L -63 -1063 
L 3263 -1063 
z
" transform="scale(0.015625)"/>
       </defs>
       <use xlink:href="#DejaVuSans-74"/>
       <use xlink:href="#DejaVuSans-65" transform="translate(39.208984 0)"/>
       <use xlink:href="#DejaVuSans-6c" transform="translate(100.732422 0)"/>
       <use xlink:href="#DejaVuSans-65" transform="translate(128.515625 0)"/>
       <use xlink:href="#DejaVuSans-67" transform="translate(190.039062 0)"/>
       <use xlink:href="#DejaVuSans-72" transform="translate(253.515625 0)"/>
       <use xlink:href="#DejaVuSans-61" transform="translate(294.628906 0)"/>
       <use xlink:href="#DejaVuSans-6d" transform="translate(355.908203 0)"/>
       <use xlink:href="#DejaVuSans-5f" transform="translate(453.320312 0)"/>
       <use xlink:href="#DejaVuSans-62" transform="translate(503.320312 0)"/>
       <use xlink:href="#DejaVuSans-6f" transform="translate(566.796875 0)"/>
       <use xlink:href="#DejaVuSans-74" transform="translate(627.978516 0)"/>
      </g>
     </g>
    </g>
    <g id="ytick_32">
     <g id="line2d_41">
      <g>
       <use xlink:href="#m518762612c" x="140.29" y="176.801799" style="stroke: #000000; stroke-width: 0.8"/>
      </g>
     </g>
     <g id="text_42">
      <!-- ai -->
      <g transform="translate(124.38375 180.601018) scale(0.1 -0.1)">
       <use xlink:href="#DejaVuSans-61"/>
       <use xlink:href="#DejaVuSans-69" transform="translate(61.279297 0)"/>
      </g>
     </g>
    </g>
    <g id="ytick_33">
     <g id="line2d_42">
      <g>
       <use xlink:href="#m518762612c" x="140.29" y="158.717143" style="stroke: #000000; stroke-width: 0.8"/>
      </g>
     </g>
     <g id="text_43">
      <!-- community_join_request -->
      <g transform="translate(10.879063 162.516362) scale(0.1 -0.1)">
       <defs>
        <path id="DejaVuSans-6a" d="M 603 3500 
L 1178 3500 
L 1178 -63 
Q 1178 -731 923 -1031 
Q 669 -1331 103 -1331 
L -116 -1331 
L -116 -844 
L 38 -844 
Q 366 -844 484 -692 
Q 603 -541 603 -63 
L 603 3500 
z
M 603 4863 
L 1178 4863 
L 1178 4134 
L 603 4134 
L 603 4863 
z
" transform="scale(0.015625)"/>
        <path id="DejaVuSans-71" d="M 947 1747 
Q 947 1113 1208 752 
Q 1469 391 1925 391 
Q 2381 391 2643 752 
Q 2906 1113 2906 1747 
Q 2906 2381 2643 2742 
Q 2381 3103 1925 3103 
Q 1469 3103 1208 2742 
Q 947 2381 947 1747 
z
M 2906 525 
Q 2725 213 2448 61 
Q 2172 -91 1784 -91 
Q 1150 -91 751 415 
Q 353 922 353 1747 
Q 353 2572 751 3078 
Q 1150 3584 1784 3584 
Q 2172 3584 2448 3432 
Q 2725 3281 2906 2969 
L 2906 3500 
L 3481 3500 
L 3481 -1331 
L 2906 -1331 
L 2906 525 
z
" transform="scale(0.015625)"/>
       </defs>
       <use xlink:href="#DejaVuSans-63"/>
       <use xlink:href="#DejaVuSans-6f" transform="translate(54.980469 0)"/>
       <use xlink:href="#DejaVuSans-6d" transform="translate(116.162109 0)"/>
       <use xlink:href="#DejaVuSans-6d" transform="translate(213.574219 0)"/>
       <use xlink:href="#DejaVuSans-75" transform="translate(310.986328 0)"/>
       <use xlink:href="#DejaVuSans-6e" transform="translate(374.365234 0)"/>
       <use xlink:href="#DejaVuSans-69" transform="translate(437.744141 0)"/>
       <use xlink:href="#DejaVuSans-74" transform="translate(465.527344 0)"/>
       <use xlink:href="#DejaVuSans-79" transform="translate(504.736328 0)"/>
       <use xlink:href="#DejaVuSans-5f" transform="translate(563.916016 0)"/>
       <use xlink:href="#DejaVuSans-6a" transform="translate(613.916016 0)"/>
       <use xlink:href="#DejaVuSans-6f" transform="translate(641.699219 0)"/>
       <use xlink:href="#DejaVuSans-69" transform="translate(702.880859 0)"/>
       <use xlink:href="#DejaVuSans-6e" transform="translate(730.664062 0)"/>
       <use xlink:href="#DejaVuSans-5f" transform="translate(794.042969 0)"/>
       <use xlink:href="#DejaVuSans-72" transform="translate(844.042969 0)"/>
       <use xlink:href="#DejaVuSans-65" transform="translate(882.90625 0)"/>
       <use xlink:href="#DejaVuSans-71" transform="translate(944.429688 0)"/>
       <use xlink:href="#DejaVuSans-75" transform="translate(1007.90625 0)"/>
       <use xlink:href="#DejaVuSans-65" transform="translate(1071.285156 0)"/>
       <use xlink:href="#DejaVuSans-73" transform="translate(1132.808594 0)"/>
       <use xlink:href="#DejaVuSans-74" transform="translate(1184.908203 0)"/>
      </g>
     </g>
    </g>
    <g id="ytick_34">
     <g id="line2d_43">
      <g>
       <use xlink:href="#m518762612c" x="140.29" y="140.632487" style="stroke: #000000; stroke-width: 0.8"/>
      </g>
     </g>
     <g id="text_44">
      <!-- admin -->
      <g transform="translate(101.957188 144.431706) scale(0.1 -0.1)">
       <use xlink:href="#DejaVuSans-61"/>
       <use xlink:href="#DejaVuSans-64" transform="translate(61.279297 0)"/>
       <use xlink:href="#DejaVuSans-6d" transform="translate(124.755859 0)"/>
       <use xlink:href="#DejaVuSans-69" transform="translate(222.167969 0)"/>
       <use xlink:href="#DejaVuSans-6e" transform="translate(249.951172 0)"/>
      </g>
     </g>
    </g>
    <g id="ytick_35">
     <g id="line2d_44">
      <g>
       <use xlink:href="#m518762612c" x="140.29" y="122.547831" style="stroke: #000000; stroke-width: 0.8"/>
      </g>
     </g>
     <g id="text_45">
      <!-- ia -->
      <g transform="translate(124.38375 126.347049) scale(0.1 -0.1)">
       <use xlink:href="#DejaVuSans-69"/>
       <use xlink:href="#DejaVuSans-61" transform="translate(27.783203 0)"/>
      </g>
     </g>
    </g>
    <g id="ytick_36">
     <g id="line2d_45">
      <g>
       <use xlink:href="#m518762612c" x="140.29" y="104.463175" style="stroke: #000000; stroke-width: 0.8"/>
      </g>
     </g>
     <g id="text_46">
      <!-- ranking -->
      <g transform="translate(95.45875 108.262393) scale(0.1 -0.1)">
       <use xlink:href="#DejaVuSans-72"/>
       <use xlink:href="#DejaVuSans-61" transform="translate(41.113281 0)"/>
       <use xlink:href="#DejaVuSans-6e" transform="translate(102.392578 0)"/>
       <use xlink:href="#DejaVuSans-6b" transform="translate(165.771484 0)"/>
       <use xlink:href="#DejaVuSans-69" transform="translate(223.681641 0)"/>
       <use xlink:href="#DejaVuSans-6e" transform="translate(251.464844 0)"/>
       <use xlink:href="#DejaVuSans-67" transform="translate(314.84375 0)"/>
      </g>
     </g>
    </g>
    <g id="ytick_37">
     <g id="line2d_46">
      <g>
       <use xlink:href="#m518762612c" x="140.29" y="86.378519" style="stroke: #000000; stroke-width: 0.8"/>
      </g>
     </g>
     <g id="text_47">
      <!-- discord_bot -->
      <g transform="translate(75.665 90.177737) scale(0.1 -0.1)">
       <use xlink:href="#DejaVuSans-64"/>
       <use xlink:href="#DejaVuSans-69" transform="translate(63.476562 0)"/>
       <use xlink:href="#DejaVuSans-73" transform="translate(91.259766 0)"/>
       <use xlink:href="#DejaVuSans-63" transform="translate(143.359375 0)"/>
       <use xlink:href="#DejaVuSans-6f" transform="translate(198.339844 0)"/>
       <use xlink:href="#DejaVuSans-72" transform="translate(259.521484 0)"/>
       <use xlink:href="#DejaVuSans-64" transform="translate(298.884766 0)"/>
       <use xlink:href="#DejaVuSans-5f" transform="translate(362.361328 0)"/>
       <use xlink:href="#DejaVuSans-62" transform="translate(412.361328 0)"/>
       <use xlink:href="#DejaVuSans-6f" transform="translate(475.837891 0)"/>
       <use xlink:href="#DejaVuSans-74" transform="translate(537.019531 0)"/>
      </g>
     </g>
    </g>
    <g id="ytick_38">
     <g id="line2d_47">
      <g>
       <use xlink:href="#m518762612c" x="140.29" y="68.293862" style="stroke: #000000; stroke-width: 0.8"/>
      </g>
     </g>
     <g id="text_48">
      <!-- common -->
      <g transform="translate(89.735313 72.093081) scale(0.1 -0.1)">
       <use xlink:href="#DejaVuSans-63"/>
       <use xlink:href="#DejaVuSans-6f" transform="translate(54.980469 0)"/>
       <use xlink:href="#DejaVuSans-6d" transform="translate(116.162109 0)"/>
       <use xlink:href="#DejaVuSans-6d" transform="translate(213.574219 0)"/>
       <use xlink:href="#DejaVuSans-6f" transform="translate(310.986328 0)"/>
       <use xlink:href="#DejaVuSans-6e" transform="translate(372.167969 0)"/>
      </g>
     </g>
    </g>
   </g>
   <g id="patch_41">
    <path d="M 140.29 778.84 
L 140.29 26.88 
" style="fill: none; stroke: #000000; stroke-width: 0.8; stroke-linejoin: miter; stroke-linecap: square"/>
   </g>
   <g id="patch_42">
    <path d="M 853.2 778.84 
L 853.2 26.88 
" style="fill: none; stroke: #000000; stroke-width: 0.8; stroke-linejoin: miter; stroke-linecap: square"/>
   </g>
   <g id="patch_43">
    <path d="M 140.29 778.84 
L 853.2 778.84 
" style="fill: none; stroke: #000000; stroke-width: 0.8; stroke-linejoin: miter; stroke-linecap: square"/>
   </g>
   <g id="patch_44">
    <path d="M 140.29 26.88 
L 853.2 26.88 
" style="fill: none; stroke: #000000; stroke-width: 0.8; stroke-linejoin: miter; stroke-linecap: square"/>
   </g>
   <g id="text_49">
    <!-- Feature Introduction Timeline -->
    <g transform="translate(408.424063 20.88) scale(0.12 -0.12)">
     <defs>
      <path id="DejaVuSans-46" d="M 628 4666 
L 3309 4666 
L 3309 4134 
L 1259 4134 
L 1259 2759 
L 3109 2759 
L 3109 2228 
L 1259 2228 
L 1259 0 
L 628 0 
L 628 4666 
z
" transform="scale(0.015625)"/>
      <path id="DejaVuSans-49" d="M 628 4666 
L 1259 4666 
L 1259 0 
L 628 0 
L 628 4666 
z
" transform="scale(0.015625)"/>
      <path id="DejaVuSans-54" d="M -19 4666 
L 3928 4666 
L 3928 4134 
L 2272 4134 
L 2272 0 
L 1638 0 
L 1638 4134 
L -19 4134 
L -19 4666 
z
" transform="scale(0.015625)"/>
     </defs>
     <use xlink:href="#DejaVuSans-46"/>
     <use xlink:href="#DejaVuSans-65" transform="translate(52.019531 0)"/>
     <use xlink:href="#DejaVuSans-61" transform="translate(113.542969 0)"/>
     <use xlink:href="#DejaVuSans-74" transform="translate(174.822266 0)"/>
     <use xlink:href="#DejaVuSans-75" transform="translate(214.03125 0)"/>
     <use xlink:href="#DejaVuSans-72" transform="translate(277.410156 0)"/>
     <use xlink:href="#DejaVuSans-65" transform="translate(316.273438 0)"/>
     <use xlink:href="#DejaVuSans-20" transform="translate(377.796875 0)"/>
     <use xlink:href="#DejaVuSans-49" transform="translate(409.583984 0)"/>
     <use xlink:href="#DejaVuSans-6e" transform="translate(439.076172 0)"/>
     <use xlink:href="#DejaVuSans-74" transform="translate(502.455078 0)"/>
     <use xlink:href="#DejaVuSans-72" transform="translate(541.664062 0)"/>
     <use xlink:href="#DejaVuSans-6f" transform="translate(580.527344 0)"/>
     <use xlink:href="#DejaVuSans-64" transform="translate(641.708984 0)"/>
     <use xlink:href="#DejaVuSans-75" transform="translate(705.185547 0)"/>
     <use xlink:href="#DejaVuSans-63" transform="translate(768.564453 0)"/>
     <use xlink:href="#DejaVuSans-74" transform="translate(823.544922 0)"/>
     <use xlink:href="#DejaVuSans-69" transform="translate(862.753906 0)"/>
     <use xlink:href="#DejaVuSans-6f" transform="translate(890.537109 0)"/>
     <use xlink:href="#DejaVuSans-6e" transform="translate(951.71875 0)"/>
     <use xlink:href="#DejaVuSans-20" transform="translate(1015.097656 0)"/>
     <use xlink:href="#DejaVuSans-54" transform="translate(1046.884766 0)"/>
     <use xlink:href="#DejaVuSans-69" transform="translate(1104.84375 0)"/>
     <use xlink:href="#DejaVuSans-6d" transform="translate(1132.626953 0)"/>
     <use xlink:href="#DejaVuSans-65" transform="translate(1230.039062 0)"/>
     <use xlink:href="#DejaVuSans-6c" transform="translate(1291.5625 0)"/>
     <use xlink:href="#DejaVuSans-69" transform="translate(1319.345703 0)"/>
     <use xlink:href="#DejaVuSans-6e" transform="translate(1347.128906 0)"/>
     <use xlink:href="#DejaVuSans-65" transform="translate(1410.507812 0)"/>
    </g>
   </g>
  </g>
 </g>
 <defs>
  <clipPath id="p23d242557e">
   <rect x="140.29" y="26.88" width="712.91" height="751.96"/>
  </clipPath>
 </defs>
</svg>
